<?xml version="1.0" encoding="UTF-8"?>
<svg xmlns="http://www.w3.org/2000/svg" xmlns:xlink="http://www.w3.org/1999/xlink" width="26pt" height="26pt" viewBox="0 0 26 26" version="1.1">
<g id="surface17939733">
<path style=" stroke:none;fill-rule:nonzero;fill:rgb(100%,100%,100%);fill-opacity:1;" d="M 13 0 C 5.820312 0 0 5.820312 0 13 C 0 19.519531 4.800781 24.898438 11.058594 25.839844 L 11.058594 16.445312 L 7.839844 16.445312 L 7.839844 13.027344 L 11.058594 13.027344 L 11.058594 10.753906 C 11.058594 6.988281 12.890625 5.335938 16.019531 5.335938 C 17.519531 5.335938 18.3125 5.449219 18.6875 5.5 L 18.6875 8.480469 L 16.550781 8.480469 C 15.222656 8.480469 14.761719 9.742188 14.761719 11.160156 L 14.761719 13.027344 L 18.652344 13.027344 L 18.125 16.445312 L 14.761719 16.445312 L 14.761719 25.867188 C 21.105469 25.007812 26 19.582031 26 13 C 26 5.820312 20.179688 0 13 0 Z M 13 0 "/>
</g>
</svg>
